<svg width="512" height="512" viewBox="0 0 512 512" fill="none" xmlns="http://www.w3.org/2000/svg">
<path d="M407.1 137.9C372.2 96.3 325.8 70.6 275.9 65.3C273.9 55.4 265.7 48 256 48C246.3 48 238.1 55.3 236.1 65.2C185.5 70.4 138.7 95.5 104 136.4C68.2 178.6 48.4 221.9 48.2 280.1C48.1 280.6 48 281.3 48 282.2C48.1 285.4 50.7 288 53.8 288H56.9C59.5 288 61.8 286.2 62.5 283.6C65.2 273.5 70.9 264.5 78.5 258.1C86.2 251.6 95.4 248.2 105.1 248.2C114.7 248.2 123.9 251.6 131.6 258.2C139.2 264.6 144.8 273.6 147.6 283.7C148.3 286.3 150.6 288.1 153.2 288.1H158C160.6 288.1 162.9 286.3 163.6 283.7C169.3 262.8 186.9 248.3 206.4 248.3C221.2 248.3 235.2 256.7 243.3 270.2V418C243.3 427.9 235.3 436 225.6 436C215.9 436 208 427.9 208 418C208 410.3 201.9 404 194.3 404C186.8 404 180.7 410.3 180.7 418C180.7 443.4 200.9 464 225.6 464C250.4 464 270.5 443.4 270.5 418V270.8C278.7 256.6 292.4 248.2 307.4 248.2C317 248.2 326.1 251.6 333.8 258.1C341.3 264.5 346.9 273.5 349.7 283.6C350.4 286.2 352.7 288 355.3 288H360.1C362.7 288 365 286.2 365.7 283.6C368.4 273.5 374.1 264.4 381.7 258C389.4 251.5 398.6 248 408.3 248C418 248 427.3 251.4 435 258C442.6 264.4 448.2 273.5 450.9 283.6C451.6 286.2 453.9 288 456.5 288H458C459.6 288 461.1 287.4 462.2 286.2C463.3 285 463.9 283.5 463.9 281.9C463.1 224 442.9 180.6 407.1 137.9Z" fill="white"/>
</svg>
