<svg width="89" height="89" viewBox="0 0 89 89" fill="none" xmlns="http://www.w3.org/2000/svg">
<circle cx="44.4444" cy="44.4444" r="44.4444" fill="#E0E4F0"/>
<path d="M44.4444 14.8148C39.7294 14.8148 35.2076 16.6878 31.8736 20.0218C28.5396 23.3558 26.6666 27.8776 26.6666 32.5926C26.6666 37.3076 28.5396 41.8294 31.8736 45.1634C35.2076 48.4974 39.7294 50.3704 44.4444 50.3704C49.1593 50.3704 53.6812 48.4974 57.0151 45.1634C60.3491 41.8294 62.2221 37.3076 62.2221 32.5926C62.2221 27.8776 60.3491 23.3558 57.0151 20.0218C53.6812 16.6878 49.1593 14.8148 44.4444 14.8148ZM22.2621 54.8148C21.0916 54.8101 19.9317 55.0366 18.8489 55.4811C17.7661 55.9257 16.7817 56.5796 15.9522 57.4054C15.1226 58.2313 14.4643 59.2127 14.0149 60.2935C13.5655 61.3743 13.3338 62.5332 13.3333 63.7037C13.3333 71.2193 17.0355 76.8859 22.8221 80.5793C28.5199 84.2104 36.1999 85.9259 44.4444 85.9259C52.6888 85.9259 60.3688 84.2104 66.0666 80.5793C71.8532 76.8904 75.5555 71.2148 75.5555 63.7037C75.5555 61.3462 74.619 59.0853 72.952 57.4183C71.285 55.7513 69.0241 54.8148 66.6666 54.8148H22.2621Z" fill="#949CB4"/>
</svg>
