<svg width="200" height="178" viewBox="0 0 200 178" fill="none" xmlns="http://www.w3.org/2000/svg">
<g clip-path="url(#clip0_203_36)">
<path d="M72.2222 0C61.8403 0 53.2292 7.11806 50.7639 16.7361C50.4861 16.7361 50.2778 16.6667 50 16.6667C37.7431 16.6667 27.7778 26.6319 27.7778 38.8889C27.7778 40.5556 27.9861 42.1875 28.3681 43.75C18.2292 47.9167 11.1111 57.8472 11.1111 69.4444C11.1111 73.8194 12.2222 77.8819 13.9931 81.5625C5.65972 86.3542 0 95.2431 0 105.556C0 117.118 7.08333 127.049 17.1528 131.215C16.8403 132.812 16.6667 134.444 16.6667 136.111C16.6667 149.931 27.8472 161.111 41.6667 161.111C43.0903 161.111 44.4792 160.937 45.8333 160.694C49.1667 170.59 58.4028 177.778 69.4444 177.778C83.2639 177.778 94.4444 166.597 94.4444 152.778V22.2222C94.4444 9.96528 84.4792 0 72.2222 0ZM200 105.556C200 95.2431 194.34 86.3542 186.007 81.5625C187.812 77.8819 188.889 73.8194 188.889 69.4444C188.889 57.8472 181.771 47.9167 171.632 43.75C171.979 42.1875 172.222 40.5556 172.222 38.8889C172.222 26.6319 162.257 16.6667 150 16.6667C149.722 16.6667 149.479 16.7361 149.236 16.7361C146.771 7.11806 138.16 0 127.778 0C115.521 0 105.556 9.93055 105.556 22.2222V152.778C105.556 166.597 116.736 177.778 130.556 177.778C141.597 177.778 150.833 170.59 154.167 160.694C155.521 160.937 156.91 161.111 158.333 161.111C172.153 161.111 183.333 149.931 183.333 136.111C183.333 134.444 183.16 132.812 182.847 131.215C192.917 127.049 200 117.118 200 105.556Z" fill="#8C45E6"/>
</g>
<defs>
<clipPath id="clip0_203_36">
<rect width="200" height="177.778" fill="white"/>
</clipPath>
</defs>
</svg>
