<svg width="200" height="160" viewBox="0 0 200 160" fill="none" xmlns="http://www.w3.org/2000/svg">
<g clip-path="url(#clip0_203_20)">
<path d="M44.7657 69.0031L40.8844 83.4937C39.9438 87.0093 39.7501 90.6468 40.1313 94.2406L29.1313 103.297C27.0782 104.987 24.0344 103.162 24.5626 100.556L29.3876 76.5937C29.7188 74.95 28.5563 73.3812 26.8876 73.2218L2.55631 70.8625C-0.0905629 70.6062 -0.953063 67.1656 1.26256 65.6937L21.6219 52.1625C23.0157 51.2343 23.3032 49.3031 22.2407 48.0093L6.70631 29.1312C5.01569 27.0781 6.84069 24.0375 9.45006 24.5625L33.4126 29.3875C35.0563 29.7187 36.6251 28.5562 36.7876 26.8875L39.1469 2.55621C39.4032 -0.0937874 42.8438 -0.953163 44.3188 1.26246L57.8501 21.6187C58.7782 23.0125 60.7094 23.3 62.0032 22.2375L80.8782 6.70309C82.9313 5.01246 85.9719 6.83746 85.4469 9.44371L81.9063 26.9937C81.0594 27.9468 80.2094 28.8968 79.4344 29.9312L69.3876 43.3593L66.0407 47.8343C55.8126 50.5718 47.5469 58.625 44.7657 69.0031ZM199.319 110.412L195.438 124.9C194.459 128.55 192.506 131.653 189.953 134.075C189.103 134.879 188.188 135.611 187.216 136.262L182.844 152.584C182.488 153.919 181.875 155.116 181.078 156.141C178.681 159.216 174.597 160.728 170.597 159.656L160.938 157.069C155.603 155.641 152.438 150.156 153.866 144.822L156.453 135.162L79.1782 114.456L76.5907 124.116C75.1626 129.45 69.6782 132.616 64.3438 131.187L54.6844 128.6C50.6844 127.528 47.9032 124.175 47.3657 120.316C47.1876 119.028 47.2563 117.684 47.6126 116.353L51.9844 100.031C51.4673 98.9806 51.0397 97.8881 50.7063 96.7656C49.7063 93.3937 49.5657 89.7281 50.5438 86.0781L54.4251 71.5875C56.0844 65.4 60.4751 60.7031 65.9532 58.3968C67.7951 57.6205 69.7426 57.1234 71.7313 56.9218L77.3969 49.35L87.4438 35.9218C88.5219 34.4812 89.6907 33.1406 90.9438 31.9093C93.4438 29.4437 96.2657 27.3968 99.3001 25.8125C100.819 25.0187 102.391 24.3406 104.003 23.7843C107.231 22.6656 110.625 22.025 114.078 21.8968C117.531 21.7687 121.05 22.1531 124.525 23.0843L162.863 33.3562C166.338 34.2875 169.575 35.7125 172.503 37.5531C176.873 40.2967 180.576 43.9797 183.344 48.3343C186.1 52.6718 187.919 57.6593 188.556 63.0187L190.544 79.6718L191.666 89.0625C194.911 91.4055 197.384 94.6615 198.772 98.4156C200.144 102.128 200.425 106.287 199.319 110.412ZM79.8688 73.2312C74.0719 71.6781 69.1782 74.4937 67.6282 80.2718C66.0782 86.05 68.9126 90.9343 74.7063 92.4875C80.5032 94.0406 88.9376 97.3343 90.4844 91.5562C92.0344 85.7781 85.6626 74.7843 79.8688 73.2312ZM170.684 82.0343L168.697 65.3812C168.516 63.8593 168.106 62.4031 167.503 61.05C165.691 56.9906 162.128 53.8593 157.684 52.6687L119.347 42.3968C116.451 41.6212 113.389 41.7309 110.556 42.7118C107.723 43.6926 105.249 45.4997 103.453 47.9L93.4063 61.3281L147.156 75.7281L170.684 82.0343ZM176.463 99.1125C170.666 97.5593 159.65 103.897 158.103 109.672C156.556 115.45 165.506 116.816 171.303 118.369C177.1 119.922 181.994 117.106 183.544 111.328C185.091 105.553 182.259 100.666 176.463 99.1125Z" fill="#8E90AD"/>
</g>
<defs>
<clipPath id="clip0_203_20">
<rect width="200" height="160" fill="white"/>
</clipPath>
</defs>
</svg>
