<svg width="200" height="200" viewBox="0 0 200 200" fill="none" xmlns="http://www.w3.org/2000/svg">
<path d="M12.5 146.875C12.5 152.677 14.8047 158.241 18.907 162.343C23.0094 166.445 28.5734 168.75 34.375 168.75H165.625C171.427 168.75 176.991 166.445 181.093 162.343C185.195 158.241 187.5 152.677 187.5 146.875V86.7188H12.5V146.875ZM38.2812 117.188C38.2812 114.079 39.5159 111.099 41.7136 108.901C43.9113 106.703 46.892 105.469 50 105.469H68.75C71.858 105.469 74.8387 106.703 77.0364 108.901C79.2341 111.099 80.4688 114.079 80.4688 117.188V125C80.4688 128.108 79.2341 131.089 77.0364 133.286C74.8387 135.484 71.858 136.719 68.75 136.719H50C46.892 136.719 43.9113 135.484 41.7136 133.286C39.5159 131.089 38.2812 128.108 38.2812 125V117.188ZM165.625 31.25H34.375C28.5734 31.25 23.0094 33.5547 18.907 37.657C14.8047 41.7594 12.5 47.3234 12.5 53.125V63.2812H187.5V53.125C187.5 47.3234 185.195 41.7594 181.093 37.657C176.991 33.5547 171.427 31.25 165.625 31.25Z" fill="#34A853"/>
</svg>
