<svg width="200" height="200" viewBox="0 0 200 200" fill="none" xmlns="http://www.w3.org/2000/svg">
<path d="M79.1667 95.834L50.75 110.376C42.8833 114.409 36.9167 121.376 34.5583 129.892C30.5833 144.234 25 167.242 25 183.334M120.833 95.834L149.25 110.376C157.117 114.409 163.083 121.376 165.45 129.892C169.417 144.234 175 167.242 175 183.334M58.3333 183.334C58.3333 173.726 62.5 141.667 66.675 133.334" stroke="#34A853" stroke-width="6" stroke-linecap="round" stroke-linejoin="round"/>
<path d="M66.6668 141.325C78.6334 143.292 107.05 137.784 125 100M100 166.667C100 166.667 141.667 150 150 112.5M166.667 137.5C162.875 155.892 154.167 175 141.667 183.334M129.167 75.4837L132.675 57.5253C136.8 36.3837 121.025 16.667 100 16.667C78.9751 16.667 63.2001 36.3837 67.3251 57.5253L70.8251 75.4837C73.6168 89.7337 85.8334 100 100 100C114.183 100 126.392 89.742 129.167 75.4837Z" stroke="#34A853" stroke-width="6" stroke-linecap="round" stroke-linejoin="round"/>
<path d="M66.6665 50.0007L91.9165 42.8007C97.1977 41.2774 102.802 41.2774 108.083 42.8007L133.333 50.0007" stroke="#34A853" stroke-width="6" stroke-linecap="round" stroke-linejoin="round"/>
</svg>
