<svg width="200" height="200" viewBox="0 0 200 200" fill="none" xmlns="http://www.w3.org/2000/svg">
<path d="M146.875 12.5C154.232 12.5 161.133 13.8672 167.578 16.6016C174.023 19.3359 179.622 23.112 184.375 27.9297C189.128 32.7474 192.904 38.3789 195.703 44.8242C198.503 51.2695 199.902 58.1706 199.902 65.5273C199.902 69.3034 199.512 73.0469 198.73 76.7578C197.949 80.4688 196.777 84.0495 195.215 87.5H150L131.25 67.9688L100 99.2188L56.25 55.4688L25 87.5H4.78516C3.22266 84.0495 2.05078 80.4688 1.26953 76.7578C0.488281 73.0469 0.0976562 69.3034 0.0976562 65.5273C0.0976562 58.1706 1.46484 51.2695 4.19922 44.8242C6.93359 38.3789 10.7096 32.7799 15.5273 28.0273C20.3451 23.2747 25.9766 19.4987 32.4219 16.6992C38.8672 13.8997 45.7682 12.5 53.125 12.5C60.2214 12.5 66.9922 13.8346 73.4375 16.5039C79.8828 19.1732 85.6445 23.0143 90.7227 28.0273L100 37.4023L109.277 28.0273C114.29 23.0143 120.02 19.1732 126.465 16.5039C132.91 13.8346 139.714 12.5 146.875 12.5ZM137.5 100H187.305L185.938 101.562C185.482 102.083 184.993 102.637 184.473 103.223L100 187.598L15.5273 103.223C15.0065 102.702 14.5182 102.181 14.0625 101.66C13.6068 101.139 13.151 100.586 12.6953 100H37.5L56.25 82.0312L100 125.781L131.25 94.5312L137.5 100Z" fill="#FF4646"/>
</svg>
