<svg width="225" height="200" viewBox="0 0 225 200" fill="none" xmlns="http://www.w3.org/2000/svg">
<g clip-path="url(#clip0_203_28)">
<path d="M135.273 106.172L111.797 97.6172L83.5938 175H12.5C5.58594 175 0 180.586 0 187.5C0 194.414 5.58594 200 12.5 200H212.5C219.414 200 225 194.414 225 187.5C225 180.586 219.414 175 212.5 175H110.195L135.234 106.172H135.273ZM182.578 106.094L181.289 109.648L207.734 119.258C214.805 121.836 222.578 117.617 223.203 110.117C225.742 79.4531 213.867 49.375 191.641 28.6719C192.422 31.7969 192.891 35.0391 192.969 38.3594L193.047 40.7031C193.75 62.9687 190.195 85.1563 182.578 106.094ZM180.469 38.7109C180.039 25.2734 171.68 13.3984 159.219 8.47656C158.867 8.32031 158.477 8.20313 158.125 8.04688C145.234 3.47656 130.859 7.10938 121.758 17.3438L120.195 19.1016C106.406 34.4922 95.7031 52.4219 88.5938 71.875L87.3047 75.4297L169.531 105.352L170.82 101.797C177.891 82.3438 181.211 61.7578 180.547 41.0547L180.469 38.7109ZM41.875 44.1016C37.5391 50.2344 40.7812 58.4766 47.8516 61.0547L75.5859 71.1328L76.875 67.5781C84.4922 46.6406 96.0547 27.3438 110.898 10.7422L112.461 8.98438C114.883 6.28906 117.578 3.90625 120.469 1.875C89.375 2.85156 60.0391 18.3594 41.875 44.0625V44.1016Z" fill="#5F9BFF"/>
</g>
<defs>
<clipPath id="clip0_203_28">
<rect width="225" height="200" fill="white"/>
</clipPath>
</defs>
</svg>
