<svg width="200" height="200" viewBox="0 0 200 200" fill="none" xmlns="http://www.w3.org/2000/svg">
<path d="M154.167 25H133.333C132.228 25 131.168 25.439 130.387 26.2204C129.605 27.0018 129.167 28.0616 129.167 29.1667V29.6583L158.333 52.9917V29.1667C158.333 28.0616 157.894 27.0018 157.113 26.2204C156.331 25.439 155.272 25 154.167 25Z" fill="#FF4646"/>
<path d="M89.5835 79.1667C89.5835 76.404 90.681 73.7545 92.6345 71.801C94.588 69.8475 97.2375 68.75 100 68.75C102.763 68.75 105.412 69.8475 107.366 71.801C109.319 73.7545 110.417 76.404 110.417 79.1667C110.417 81.9293 109.319 84.5789 107.366 86.5324C105.412 88.4859 102.763 89.5833 100 89.5833C97.2375 89.5833 94.588 88.4859 92.6345 86.5324C90.681 84.5789 89.5835 81.9293 89.5835 79.1667" fill="#FF4646"/>
<path fill-rule="evenodd" clip-rule="evenodd" d="M172.917 91.3338L179.433 96.5504C180.73 97.5614 182.374 98.0202 184.007 97.8275C185.641 97.6348 187.132 96.806 188.159 95.5208C189.185 94.2357 189.663 92.5978 189.49 90.9622C189.317 89.3267 188.506 87.8254 187.233 86.7837L119.525 32.6171C113.983 28.1826 107.097 25.7666 99.9998 25.7666C92.9024 25.7666 86.0164 28.1826 80.4748 32.6171L12.7665 86.7837C11.4714 87.8192 10.6406 89.3267 10.457 90.9747C10.2733 92.6227 10.7519 94.2761 11.7873 95.5713C12.8228 96.8664 14.3303 97.6972 15.9783 97.8808C17.6263 98.0644 19.2797 97.5859 20.5748 96.5504L27.0832 91.3338V177.084H16.6665C15.0089 177.084 13.4192 177.742 12.2471 178.914C11.075 180.086 10.4165 181.676 10.4165 183.334C10.4165 184.991 11.075 186.581 12.2471 187.753C13.4192 188.925 15.0089 189.584 16.6665 189.584H183.333C184.991 189.584 186.581 188.925 187.753 187.753C188.925 186.581 189.583 184.991 189.583 183.334C189.583 181.676 188.925 180.086 187.753 178.914C186.581 177.742 184.991 177.084 183.333 177.084H172.917V91.3338ZM77.0832 79.1671C77.0832 73.0892 79.4976 67.2603 83.7953 62.9625C88.093 58.6648 93.922 56.2504 99.9998 56.2504C106.078 56.2504 111.907 58.6648 116.204 62.9625C120.502 67.2603 122.917 73.0892 122.917 79.1671C122.917 85.245 120.502 91.0739 116.204 95.3716C111.907 99.6693 106.078 102.084 99.9998 102.084C93.922 102.084 88.093 99.6693 83.7953 95.3716C79.4976 91.0739 77.0832 85.245 77.0832 79.1671ZM100.417 110.417C105.95 110.417 110.725 110.417 114.55 110.934C118.65 111.484 122.575 112.725 125.758 115.909C128.942 119.092 130.183 123.017 130.733 127.117C131.217 130.7 131.25 135.117 131.25 140.225V177.084H118.75V141.667C118.75 135.6 118.733 131.667 118.35 128.784C117.983 126.075 117.4 125.225 116.917 124.75C116.433 124.275 115.592 123.684 112.883 123.317C109.992 122.934 106.067 122.917 99.9998 122.917C93.9332 122.917 89.9998 122.934 87.1165 123.317C84.4082 123.684 83.5582 124.275 83.0832 124.75C82.6082 125.225 82.0165 126.075 81.6498 128.784C81.2665 131.675 81.2498 135.6 81.2498 141.667V177.084H68.7498V141.25C68.7498 135.717 68.7498 130.942 69.2665 127.117C69.8165 123.017 71.0582 119.092 74.2415 115.909C77.4248 112.725 81.3582 111.484 85.4498 110.934C89.2748 110.417 94.0498 110.417 99.5915 110.417H100.417Z" fill="#FF4646"/>
<path d="M89.5835 79.1667C89.5835 76.404 90.681 73.7545 92.6345 71.801C94.588 69.8475 97.2375 68.75 100 68.75C102.763 68.75 105.412 69.8475 107.366 71.801C109.319 73.7545 110.417 76.404 110.417 79.1667C110.417 81.9293 109.319 84.5789 107.366 86.5324C105.412 88.4859 102.763 89.5833 100 89.5833C97.2375 89.5833 94.588 88.4859 92.6345 86.5324C90.681 84.5789 89.5835 81.9293 89.5835 79.1667" fill="#FF4646"/>
</svg>
