<svg width="200" height="200" viewBox="0 0 200 200" fill="none" xmlns="http://www.w3.org/2000/svg">
<path d="M100 37.5C112.922 37.5 123.715 27.4297 125 14.8438C125.117 13.6719 123.828 12.5 122.656 12.5C122.023 12.5006 121.395 12.6199 120.805 12.8516C120.727 12.8828 112.563 16.0156 100 16.0156C87.4376 16.0156 79.2579 12.8906 79.1954 12.8516C78.5297 12.6199 77.8299 12.5011 77.1251 12.5H77.1016C76.8096 12.5155 76.5235 12.5884 76.2597 12.7147C75.9959 12.8409 75.7596 13.018 75.5644 13.2357C75.3692 13.4534 75.2188 13.7076 75.122 13.9835C75.0252 14.2594 74.9837 14.5518 75.0001 14.8438C76.3086 27.4062 87.1094 37.5 100 37.5Z" fill="#5F9BFF"/>
<path d="M189.566 35.1174L139.062 17.4377C138.846 17.3623 138.616 17.3353 138.388 17.3587C138.16 17.382 137.941 17.4552 137.744 17.573C137.548 17.6907 137.38 17.8502 137.252 18.0402C137.124 18.2301 137.039 18.4459 137.004 18.6721C135.543 27.4263 131.024 35.3785 124.251 41.1144C117.478 46.8503 108.891 49.9982 100.016 49.9982C91.1403 49.9982 82.5526 46.8503 75.7799 41.1144C69.0072 35.3785 64.4885 27.4263 63.0273 18.6721C62.993 18.4421 62.9078 18.2226 62.7779 18.0297C62.648 17.8368 62.4767 17.6753 62.2764 17.557C62.0762 17.4387 61.8521 17.3666 61.6204 17.346C61.3888 17.3254 61.1554 17.3567 60.9374 17.4377L10.4335 35.1174C9.01994 35.6123 7.83106 36.5983 7.0833 37.8959C6.33553 39.1936 6.07861 40.7166 6.35929 42.1877L12.8554 76.5628C13.1054 77.873 13.768 79.0689 14.7464 79.9755C15.7247 80.8822 16.9675 81.452 18.2929 81.6018L37.3866 83.7581C38.1661 83.8459 38.8839 84.2237 39.3977 84.8164C39.9115 85.4091 40.1836 86.1733 40.1601 86.9573L37.2968 181.059C37.2588 182.272 37.5747 183.469 38.206 184.506C38.8372 185.542 39.7564 186.372 40.8515 186.895C41.7618 187.306 42.7511 187.513 43.7499 187.5H156.25C157.249 187.513 158.238 187.306 159.148 186.895C160.243 186.372 161.163 185.542 161.794 184.506C162.425 183.469 162.741 182.272 162.703 181.059L159.84 86.9573C159.816 86.1733 160.088 85.4091 160.602 84.8164C161.116 84.2237 161.834 83.8459 162.613 83.7581L181.707 81.6018C183.032 81.452 184.275 80.8822 185.253 79.9755C186.232 79.0689 186.894 77.873 187.144 76.5628L193.641 42.1877C193.921 40.7166 193.664 39.1936 192.917 37.8959C192.169 36.5983 190.98 35.6123 189.566 35.1174Z" fill="#5F9BFF"/>
</svg>
