<svg width="200" height="200" viewBox="0 0 200 200" fill="none" xmlns="http://www.w3.org/2000/svg">
<g clip-path="url(#clip0_203_40)">
<path d="M175 56.2502H174.336C173.745 54.4625 172.758 52.8314 171.449 51.4786C170.139 50.1258 168.541 49.0863 166.773 48.4377L104.273 25.7814C101.512 24.7812 98.4877 24.7812 95.7266 25.7814L33.2266 48.508C31.459 49.1566 29.8609 50.1961 28.5514 51.5489C27.2418 52.9017 26.2549 54.5328 25.6641 56.3205H25C18.3818 56.3205 12.0335 58.9447 7.34714 63.618C2.66075 68.2912 0.0186138 74.632 0 81.2502L0 100C0 106.631 2.63392 112.989 7.32233 117.678C12.0107 122.366 18.3696 125 25 125H29.0547C34.6719 137.344 46.0781 147.992 62.8281 156.375C74.2734 161.988 86.3901 166.113 98.8828 168.649C99.6214 168.785 100.379 168.785 101.117 168.649C113.61 166.113 125.727 161.988 137.172 156.375C153.922 147.992 165.297 137.344 170.945 125H175C181.63 125 187.989 122.366 192.678 117.678C197.366 112.989 200 106.631 200 100V81.2502C200 74.6198 197.366 68.2609 192.678 63.5725C187.989 58.8841 181.63 56.2502 175 56.2502ZM25 112.5C21.6848 112.5 18.5054 111.183 16.1612 108.839C13.817 106.495 12.5 103.315 12.5 100V81.2502C12.5 77.935 13.817 74.7556 16.1612 72.4114C18.5054 70.0672 21.6848 68.7502 25 68.7502V106.25C25.0013 108.341 25.1449 110.429 25.4297 112.5H25ZM131.25 112.5H68.75C67.0924 112.5 65.5027 111.842 64.3306 110.67C63.1585 109.498 62.5 107.908 62.5 106.25C62.5 104.593 63.1585 103.003 64.3306 101.831C65.5027 100.659 67.0924 100 68.75 100H131.25C132.908 100 134.497 100.659 135.669 101.831C136.842 103.003 137.5 104.593 137.5 106.25C137.5 107.908 136.842 109.498 135.669 110.67C134.497 111.842 132.908 112.5 131.25 112.5ZM131.25 87.5002H68.75C67.0924 87.5002 65.5027 86.8417 64.3306 85.6696C63.1585 84.4975 62.5 82.9078 62.5 81.2502C62.5 79.5926 63.1585 78.0029 64.3306 76.8308C65.5027 75.6587 67.0924 75.0002 68.75 75.0002H131.25C132.908 75.0002 134.497 75.6587 135.669 76.8308C136.842 78.0029 137.5 79.5926 137.5 81.2502C137.5 82.9078 136.842 84.4975 135.669 85.6696C134.497 86.8417 132.908 87.5002 131.25 87.5002ZM187.5 100C187.5 103.315 186.183 106.495 183.839 108.839C181.495 111.183 178.315 112.5 175 112.5H174.57C174.855 110.429 174.999 108.341 175 106.25V68.7502C178.315 68.7502 181.495 70.0672 183.839 72.4114C186.183 74.7556 187.5 77.935 187.5 81.2502V100Z" fill="#34A853"/>
</g>
<defs>
<clipPath id="clip0_203_40">
<rect width="200" height="200" fill="white"/>
</clipPath>
</defs>
</svg>
