<svg width="200" height="200" viewBox="0 0 200 200" fill="none" xmlns="http://www.w3.org/2000/svg">
<path d="M132.917 102.5L97.5 67.083C96.6667 66.2497 96.0778 65.3469 95.7333 64.3747C95.3889 63.4025 95.2139 62.3608 95.2083 61.2497C95.2083 60.1386 95.3833 59.0969 95.7333 58.1247C96.0833 57.1525 96.6722 56.2497 97.5 55.4163L132.917 19.9997C133.75 19.1663 134.653 18.5775 135.625 18.233C136.597 17.8886 137.639 17.7136 138.75 17.708C139.861 17.708 140.903 17.883 141.875 18.233C142.847 18.583 143.75 19.1719 144.583 19.9997L180 55.4163C180.833 56.2497 181.425 57.1525 181.775 58.1247C182.125 59.0969 182.297 60.1386 182.292 61.2497C182.292 62.3608 182.119 63.4025 181.775 64.3747C181.431 65.3469 180.839 66.2497 180 67.083L144.583 102.5C143.75 103.333 142.847 103.925 141.875 104.275C140.903 104.625 139.861 104.797 138.75 104.791C137.639 104.791 136.597 104.619 135.625 104.275C134.653 103.93 133.75 103.339 132.917 102.5ZM25 83.333V33.333C25 30.9719 25.8 28.9941 27.4 27.3997C29 25.8052 30.9778 25.0052 33.3333 24.9997H83.3333C85.6944 24.9997 87.675 25.7997 89.275 27.3997C90.875 28.9997 91.6722 30.9775 91.6667 33.333V83.333C91.6667 85.6941 90.8667 87.6747 89.2667 89.2747C87.6667 90.8747 85.6889 91.6719 83.3333 91.6663H33.3333C30.9722 91.6663 28.9944 90.8663 27.4 89.2663C25.8056 87.6663 25.0056 85.6886 25 83.333ZM108.333 166.666V116.666C108.333 114.305 109.133 112.327 110.733 110.733C112.333 109.139 114.311 108.339 116.667 108.333H166.667C169.028 108.333 171.008 109.133 172.608 110.733C174.208 112.333 175.006 114.311 175 116.666V166.666C175 169.027 174.2 171.008 172.6 172.608C171 174.208 169.022 175.005 166.667 175H116.667C114.306 175 112.328 174.2 110.733 172.6C109.139 171 108.339 169.022 108.333 166.666ZM25 166.666V116.666C25 114.305 25.8 112.327 27.4 110.733C29 109.139 30.9778 108.339 33.3333 108.333H83.3333C85.6944 108.333 87.675 109.133 89.275 110.733C90.875 112.333 91.6722 114.311 91.6667 116.666V166.666C91.6667 169.027 90.8667 171.008 89.2667 172.608C87.6667 174.208 85.6889 175.005 83.3333 175H33.3333C30.9722 175 28.9944 174.2 27.4 172.6C25.8056 171 25.0056 169.022 25 166.666ZM41.6667 74.9997H75V41.6663H41.6667V74.9997ZM138.958 84.9997L162.5 61.458L138.958 37.9163L115.417 61.458L138.958 84.9997ZM125 158.333H158.333V125H125V158.333ZM41.6667 158.333H75V125H41.6667V158.333Z" fill="#8E90AD"/>
</svg>
