<svg width="200" height="200" viewBox="0 0 200 200" fill="none" xmlns="http://www.w3.org/2000/svg">
<path d="M67.8571 99.9996C72.0781 99.9996 76.2579 99.1682 80.1576 97.5529C84.0574 95.9375 87.6008 93.5699 90.5855 90.5851C93.5702 87.6004 95.9379 84.057 97.5532 80.1573C99.1685 76.2575 99.9999 72.0778 99.9999 67.8567C99.9999 63.6357 99.1685 59.4559 97.5532 55.5562C95.9379 51.6564 93.5702 48.113 90.5855 45.1283C87.6008 42.1436 84.0574 39.7759 80.1576 38.1606C76.2579 36.5453 72.0781 35.7139 67.8571 35.7139C59.3323 35.7139 51.1566 39.1003 45.1286 45.1283C39.1007 51.1562 35.7142 59.3319 35.7142 67.8567C35.7142 76.3815 39.1007 84.5572 45.1286 90.5851C51.1566 96.6131 59.3323 99.9996 67.8571 99.9996ZM122.143 154.421C127.593 156.1 134.386 157.142 142.857 157.142C185.714 157.142 185.714 130.357 185.714 130.357C185.714 126.094 184.021 122.006 181.007 118.993C177.993 115.979 173.905 114.285 169.643 114.285H122.1C126.251 118.605 128.566 124.366 128.557 130.357V134.321L128.536 134.914C128.385 137.3 128.017 139.667 127.436 141.985C126.33 146.378 124.547 150.571 122.15 154.414M167.857 74.9996C167.857 78.2826 167.21 81.5335 165.954 84.5667C164.698 87.5998 162.856 90.3558 160.535 92.6772C158.213 94.9987 155.457 96.8402 152.424 98.0966C149.391 99.3529 146.14 99.9996 142.857 99.9996C139.574 99.9996 136.323 99.3529 133.29 98.0966C130.257 96.8402 127.501 94.9987 125.179 92.6772C122.858 90.3558 121.016 87.5998 119.76 84.5667C118.504 81.5335 117.857 78.2826 117.857 74.9996C117.857 68.3692 120.491 62.0103 125.179 57.3219C129.868 52.6335 136.227 49.9996 142.857 49.9996C149.487 49.9996 155.846 52.6335 160.535 57.3219C165.223 62.0103 167.857 68.3692 167.857 74.9996ZM14.2856 130.357C14.2856 126.094 15.9789 122.006 18.9929 118.993C22.0068 115.979 26.0947 114.285 30.3571 114.285H105.357C109.619 114.285 113.707 115.979 116.721 118.993C119.735 122.006 121.429 126.094 121.429 130.357V133.928C121.429 133.928 121.429 171.428 67.8571 171.428C14.2856 171.428 14.2856 133.928 14.2856 133.928V130.357Z" fill="#FFC738"/>
</svg>
