<svg width="200" height="200" viewBox="0 0 200 200" fill="none" xmlns="http://www.w3.org/2000/svg">
<path fill-rule="evenodd" clip-rule="evenodd" d="M33.3333 25C31.1232 25 29.0036 25.878 27.4408 27.4408C25.878 29.0036 25 31.1232 25 33.3333V100C25 102.21 25.878 104.33 27.4408 105.893C29.0036 107.455 31.1232 108.333 33.3333 108.333H41.6667V125C41.667 126.648 42.156 128.259 43.0717 129.629C43.9874 130.999 45.2887 132.067 46.8112 132.697C48.3337 133.328 50.009 133.493 51.6253 133.172C53.2415 132.85 54.7262 132.057 55.8917 130.892L78.45 108.333H125C127.21 108.333 129.33 107.455 130.893 105.893C132.455 104.33 133.333 102.21 133.333 100V33.3333C133.333 31.1232 132.455 29.0036 130.893 27.4408C129.33 25.878 127.21 25 125 25H33.3333Z" fill="#5F9BFF"/>
<path fill-rule="evenodd" clip-rule="evenodd" d="M66.8584 143.459C67.1362 143.203 67.4084 142.942 67.6751 142.675L85.3584 125H125C131.63 125 137.989 122.366 142.678 117.678C147.366 112.99 150 106.631 150 100V66.667H166.667C168.877 66.667 170.996 67.545 172.559 69.1078C174.122 70.6706 175 72.7902 175 75.0003V141.667C175 143.877 174.122 145.997 172.559 147.56C170.996 149.122 168.877 150 166.667 150H158.333V166.667C158.333 168.315 157.844 169.926 156.928 171.296C156.013 172.666 154.711 173.734 153.189 174.364C151.666 174.995 149.991 175.16 148.375 174.839C146.759 174.517 145.274 173.724 144.108 172.559L121.55 150H75.0001C73.1006 150.001 71.258 149.353 69.7773 148.163C68.2966 146.973 67.2668 145.314 66.8584 143.459Z" fill="#5F9BFF"/>
</svg>
